<svg xmlns="http://www.w3.org/2000/svg" viewBox="0 0 120 120" width="120" height="120">
  <!-- Puffy star with thick outline -->
  <path d="M60,8 Q65,35 88,20 Q78,45 105,50 Q80,58 90,82 Q65,70 60,98 Q55,70 30,82 Q40,58 15,50 Q42,45 32,20 Q55,35 60,8 Z" fill="#ff69b4" stroke="#222" stroke-width="4.5" stroke-linejoin="round"/>
  <!-- Inner star highlight -->
  <path d="M60,22 Q63,38 76,30 Q72,45 90,48 Q74,53 80,68 Q65,62 60,78 Q55,62 40,68 Q46,53 30,48 Q48,45 44,30 Q57,38 60,22 Z" fill="#ff8ec4" stroke="none"/>
  <!-- Shine spots -->
  <ellipse cx="48" cy="38" rx="7" ry="5" fill="rgba(255,255,255,0.5)" transform="rotate(-15,48,38)"/>
  <circle cx="70" cy="55" r="3" fill="rgba(255,255,255,0.35)"/>
  <!-- Sparkle -->
  <g transform="translate(95, 18)" fill="none" stroke="#fff" stroke-width="2" stroke-linecap="round">
    <line x1="0" y1="-5" x2="0" y2="5"/>
    <line x1="-5" y1="0" x2="5" y2="0"/>
  </g>
</svg>
