<svg xmlns="http://www.w3.org/2000/svg" viewBox="0 0 160 100" width="160" height="100">
  <defs>
    <filter id="sketch">
      <feTurbulence type="fractalNoise" baseFrequency="0.03" numOctaves="4" seed="19" result="n"/>
      <feDisplacementMap in="SourceGraphic" in2="n" scale="1.5" xChannelSelector="R" yChannelSelector="G"/>
    </filter>
    <pattern id="plaidBlue" x="0" y="0" width="12" height="12" patternUnits="userSpaceOnUse">
      <rect width="12" height="12" fill="#5b9bd5"/>
      <line x1="0" y1="3" x2="12" y2="3" stroke="#3a7ab8" stroke-width="2" opacity="0.5"/>
      <line x1="0" y1="9" x2="12" y2="9" stroke="#3a7ab8" stroke-width="1" opacity="0.4"/>
      <line x1="3" y1="0" x2="3" y2="12" stroke="#3a7ab8" stroke-width="2" opacity="0.5"/>
      <line x1="9" y1="0" x2="9" y2="12" stroke="#3a7ab8" stroke-width="1" opacity="0.4"/>
    </pattern>
  </defs>
  <g filter="url(#sketch)">
    <path d="M55,65 Q35,78 30,95 Q34,96 40,90 Q48,80 58,72 Z" fill="#3a7ab8" stroke="#333" stroke-width="3" stroke-linejoin="round"/>
    <path d="M105,65 Q125,78 130,95 Q126,96 120,90 Q112,80 102,72 Z" fill="#3a7ab8" stroke="#333" stroke-width="3" stroke-linejoin="round"/>
    <path d="M80,50 Q40,10 15,30 Q0,42 12,55 Q25,68 55,62 Q70,58 80,50 Z" fill="url(#plaidBlue)" stroke="#333" stroke-width="4" stroke-linejoin="round"/>
    <path d="M80,50 Q120,10 145,30 Q160,42 148,55 Q135,68 105,62 Q90,58 80,50 Z" fill="url(#plaidBlue)" stroke="#333" stroke-width="4" stroke-linejoin="round"/>
    <path d="M68,45 Q45,28 28,38" fill="none" stroke="rgba(255,255,255,0.2)" stroke-width="3" stroke-linecap="round"/>
    <path d="M92,45 Q115,28 132,38" fill="none" stroke="rgba(255,255,255,0.2)" stroke-width="3" stroke-linecap="round"/>
    <ellipse cx="80" cy="52" rx="12" ry="10" fill="#2e6a9e" stroke="#333" stroke-width="3.5"/>
    <ellipse cx="77" cy="48" rx="4" ry="3" fill="rgba(255,255,255,0.3)"/>
  </g>
</svg>
